# xmcd
#
# Track frame offsets: 
#        150
#        15050
#        30835
#        50625
#        67855
#        90325
#        107040
#        117035
#        133195
#        147200
#        167350
#        184040
#        198610
#        234530
#
# Disc length: 3553 seconds
#
# Revision: 0
# Processed by: cddbd v1.4PL0 Copyright (c) Steve Scherf et al.
# Submitted via: ExactAudioCopy v0.90b3
#
DISCID=a70ddf0e
DTITLE=Wayne Hancock - Swing Time
DYEAR=2003
DGENRE=Country
TTITLE0=Lose Your Mind
TTITLE1=Louisiana Blues
TTITLE2=Big City Good Time Gal
TTITLE3=Juke Joint Jumpin'
TTITLE4=Thunderstorms and Neon Signs
TTITLE5=Johnny Law
TTITLE6=Tag Along
TTITLE7=Route 66
TTITLE8=Hightway 54
TTITLE9=We Three
TTITLE10=Hoy Hoy Hoy
TTITLE11=Walkin' The Dog
TTITLE12=Flatland Boogie
TTITLE13=Summertime
EXTD=
EXTT0=
EXTT1=
EXTT2=
EXTT3=
EXTT4=
EXTT5=
EXTT6=
EXTT7=
EXTT8=
EXTT9=
EXTT10=
EXTT11=
EXTT12=
EXTT13=
PLAYORDER=
